<?xml version="1.0" encoding="UTF-8" standalone="no"?>
<svg
   width="600"
   height="200"
   version="1.1"
   id="svg80"
   sodipodi:docname="bumpchart_sm-jm.svg"
   inkscape:version="1.2.1 (9c6d41e410, 2022-07-14)"
   xmlns:inkscape="http://www.inkscape.org/namespaces/inkscape"
   xmlns:sodipodi="http://sodipodi.sourceforge.net/DTD/sodipodi-0.dtd"
   xmlns="http://www.w3.org/2000/svg"
   xmlns:svg="http://www.w3.org/2000/svg">
  <defs
     id="defs84" />
  <sodipodi:namedview
     id="namedview82"
     pagecolor="#ffffff"
     bordercolor="#000000"
     borderopacity="0.25"
     inkscape:showpageshadow="2"
     inkscape:pageopacity="0.0"
     inkscape:pagecheckerboard="0"
     inkscape:deskcolor="#d1d1d1"
     showgrid="false"
     inkscape:zoom="1.4259987"
     inkscape:cx="185.48404"
     inkscape:cy="195.65236"
     inkscape:window-width="1366"
     inkscape:window-height="745"
     inkscape:window-x="-8"
     inkscape:window-y="-8"
     inkscape:window-maximized="1"
     inkscape:current-layer="g73" />
  <rect
     width="600"
     height="200"
     x="0"
     y="0"
     fill="#FFFFFF"
     id="background" />
  <g
     id="viz">
    <g
       transform="translate(0,0)"
       id="g77">
      <g
         transform="translate(10,20)"
         id="g73">
        <g
           id="g11">
          <path
             fill="#bd10e0"
             d="M0,73.5C1.6292134831460674,73.5,1.6292134831460674,73.5,3.258426966292135,73.5C4.887640449438202,73.5,4.887640449438202,74,6.51685393258427,74C8.146067415730338,74,8.146067415730338,73,9.775280898876405,73C11.404494382022472,73,11.404494382022472,74,13.03370786516854,74C14.662921348314608,74,14.662921348314608,74,16.292134831460675,74C17.921348314606742,74,17.921348314606742,74,19.55056179775281,74C21.179775280898877,74,21.179775280898877,73.5,22.808988764044944,73.5C24.43820224719101,73.5,24.43820224719101,73.5,26.06741573033708,73.5C27.696629213483146,73.5,27.696629213483146,73.5,29.325842696629213,73.5C30.955056179775283,73.5,30.955056179775283,73,32.58426966292135,73C34.21348314606742,73,34.21348314606742,73.5,35.842696629213485,73.5C37.47191011235955,73.5,37.47191011235955,74,39.10112359550562,74C40.73033707865169,74,40.73033707865169,73,42.359550561797754,73C43.98876404494382,73,43.98876404494382,73.5,45.61797752808989,73.5C47.247191011235955,73.5,47.247191011235955,73,48.87640449438202,73C50.50561797752809,73,50.50561797752809,73,52.13483146067416,73C53.764044943820224,73,53.764044943820224,73.5,55.39325842696629,73.5C57.02247191011236,73.5,57.02247191011236,73,58.651685393258425,73C60.28089887640449,73,60.28089887640449,74,61.91011235955056,74C63.53932584269663,74,63.53932584269663,73.5,65.1685393258427,73.5C66.79775280898878,73.5,66.79775280898878,73,68.42696629213484,73C70.0561797752809,73,70.0561797752809,72.5,71.68539325842697,72.5C73.31460674157304,72.5,73.31460674157304,73.5,74.9438202247191,73.5C76.57303370786516,73.5,76.57303370786516,74,78.20224719101124,74C79.83146067415731,74,79.83146067415731,74,81.46067415730337,74C83.08988764044943,74,83.08988764044943,74.5,84.71910112359551,74.5C86.34831460674158,74.5,86.34831460674158,74,87.97752808988764,74C89.6067415730337,74,89.6067415730337,74,91.23595505617978,74C92.86516853932585,74,92.86516853932585,74,94.49438202247191,74C96.12359550561797,74,96.12359550561797,74,97.75280898876404,74C99.38202247191012,74,99.38202247191012,74,101.01123595505618,74C102.64044943820224,74,102.64044943820224,74,104.26966292134831,74C105.89887640449439,74,105.89887640449439,74.5,107.52808988764045,74.5C109.15730337078651,74.5,109.15730337078651,75,110.78651685393258,75C112.41573033707866,75,112.41573033707866,74,114.04494382022473,74C115.67415730337079,74,115.67415730337079,74.5,117.30337078651685,74.5C118.93258426966293,74.5,118.93258426966293,75,120.561797752809,75C122.19101123595506,75,122.19101123595506,75,123.82022471910112,75C125.4494382022472,75,125.4494382022472,75,127.07865168539327,75C128.70786516853934,75,128.70786516853934,74,130.3370786516854,74C131.96629213483146,74,131.96629213483146,74,133.59550561797752,74C135.22471910112358,74,135.22471910112358,74.5,136.85393258426967,74.5C138.48314606741573,74.5,138.48314606741573,74,140.1123595505618,74C141.74157303370788,74,141.74157303370788,74,143.37078651685394,74C145,74,145,74,146.62921348314606,74C148.25842696629212,74,148.25842696629212,73.5,149.8876404494382,73.5C151.51685393258427,73.5,151.51685393258427,74,153.14606741573033,74C154.77528089887642,74,154.77528089887642,74,156.40449438202248,74C158.03370786516854,74,158.03370786516854,73.5,159.6629213483146,73.5C161.29213483146066,73.5,161.29213483146066,74,162.92134831460675,74C164.5505617977528,74,164.5505617977528,74,166.17977528089887,74C167.80898876404495,74,167.80898876404495,74,169.43820224719101,74C171.06741573033707,74,171.06741573033707,75,172.69662921348316,75C174.32584269662922,75,174.32584269662922,74,175.95505617977528,74C177.58426966292134,74,177.58426966292134,73,179.2134831460674,73C180.8426966292135,73,180.8426966292135,72,182.47191011235955,72C184.1011235955056,72,184.1011235955056,73,185.7303370786517,73C187.35955056179776,73,187.35955056179776,72,188.98876404494382,72C190.61797752808988,72,190.61797752808988,72,192.24719101123594,72C193.87640449438203,72,193.87640449438203,71.5,195.5056179775281,71.5C197.13483146067415,71.5,197.13483146067415,71.5,198.76404494382024,71.5C200.3932584269663,71.5,200.3932584269663,71.5,202.02247191011236,71.5C203.65168539325842,71.5,203.65168539325842,70,205.28089887640448,70C206.91011235955057,70,206.91011235955057,70,208.53932584269663,70C210.1685393258427,70,210.1685393258427,70.5,211.79775280898878,70.5C213.42696629213484,70.5,213.42696629213484,70.5,215.0561797752809,70.5C216.68539325842696,70.5,216.68539325842696,70,218.31460674157302,70C219.9438202247191,70,219.9438202247191,69,221.57303370786516,69C223.20224719101122,69,223.20224719101122,68.5,224.8314606741573,68.5C226.4606741573034,68.5,226.4606741573034,67.5,228.08988764044946,67.5C229.71910112359552,67.5,229.71910112359552,80,231.34831460674155,80C232.97752808988764,80,232.97752808988764,80.5,234.6067415730337,80.5C236.23595505617976,80.5,236.23595505617976,49,237.86516853932585,49C239.49438202247194,49,239.49438202247194,42.5,241.123595505618,42.5C242.75280898876406,42.5,242.75280898876406,80,244.3820224719101,80C246.01123595505618,80,246.01123595505618,16.5,247.64044943820224,16.5C249.2696629213483,16.5,249.2696629213483,34.50000000000001,250.8988764044944,34.50000000000001C252.52808988764048,34.50000000000001,252.52808988764048,39.50000000000001,254.15730337078654,39.50000000000001C255.7865168539326,39.50000000000001,255.7865168539326,8.000000000000004,257.4157303370786,8.000000000000004C259.0449438202247,8.000000000000004,259.0449438202247,81.5,260.6741573033708,81.5C262.3033707865169,81.5,262.3033707865169,80.5,263.9325842696629,80.5C265.56179775280896,80.5,265.56179775280896,32.5,267.19101123595505,32.5C268.82022471910113,32.5,268.82022471910113,30.999999999999993,270.44943820224717,30.999999999999993C272.07865168539325,30.999999999999993,272.07865168539325,37.5,273.70786516853934,37.5C275.3370786516854,37.5,275.3370786516854,39,276.96629213483146,39C278.59550561797755,39,278.59550561797755,35,280.2247191011236,35C281.8539325842696,35,281.8539325842696,42.00000000000001,283.4831460674157,42.00000000000001C285.1123595505618,42.00000000000001,285.1123595505618,41.5,286.7415730337079,41.5C288.37078651685397,41.5,288.37078651685397,47.5,290,47.5C291.62921348314603,47.5,291.62921348314603,48,293.2584269662921,48C294.8876404494382,48,294.8876404494382,45.99999999999999,296.5168539325843,45.99999999999999C298.1460674157304,45.99999999999999,298.1460674157304,48.49999999999999,299.7752808988764,48.49999999999999C301.4044943820225,48.49999999999999,301.4044943820225,52.5,303.0337078651686,52.5C304.6629213483146,52.5,304.6629213483146,54,306.29213483146066,54C307.9213483146067,54,307.9213483146067,57.00000000000001,309.5505617977528,57.00000000000001C311.17977528089887,57.00000000000001,311.17977528089887,55.5,312.80898876404495,55.5C314.43820224719104,55.5,314.43820224719104,53.49999999999999,316.0674157303371,53.49999999999999C317.6966292134831,53.49999999999999,317.6966292134831,54,319.3258426966292,54C320.9550561797753,54,320.9550561797753,55,322.5842696629214,55C324.21348314606746,55,324.21348314606746,55.99999999999999,325.8426966292135,55.99999999999999C327.4719101123596,55.99999999999999,327.4719101123596,54.50000000000001,329.10112359550567,54.50000000000001C330.7303370786517,54.50000000000001,330.7303370786517,54.50000000000001,332.35955056179773,54.50000000000001C333.98876404494376,54.50000000000001,333.98876404494376,53.49999999999999,335.61797752808985,53.49999999999999C337.24719101123594,53.49999999999999,337.24719101123594,55,338.87640449438203,55C340.5056179775281,55,340.5056179775281,53.49999999999999,342.13483146067415,53.49999999999999C343.76404494382024,53.49999999999999,343.76404494382024,48.49999999999999,345.3932584269663,48.49999999999999C347.02247191011236,48.49999999999999,347.02247191011236,50.5,348.65168539325845,50.5C350.28089887640454,50.5,350.28089887640454,53.49999999999999,351.91011235955057,53.49999999999999C353.53932584269666,53.49999999999999,353.53932584269666,50.99999999999999,355.16853932584274,50.99999999999999C356.7977528089888,50.99999999999999,356.7977528089888,52.5,358.4269662921348,52.5C360.05617977528084,52.5,360.05617977528084,52.00000000000001,361.6853932584269,52.00000000000001C363.314606741573,52.00000000000001,363.314606741573,53.49999999999999,364.9438202247191,53.49999999999999C366.5730337078652,53.49999999999999,366.5730337078652,53,368.2022471910112,53C369.8314606741573,53,369.8314606741573,54,371.4606741573034,54C373.08988764044943,54,373.08988764044943,55.5,374.7191011235955,55.5C376.3483146067416,55.5,376.3483146067416,57.00000000000001,377.97752808988764,57.00000000000001C379.60674157303373,57.00000000000001,379.60674157303373,55.99999999999999,381.2359550561798,55.99999999999999C382.86516853932585,55.99999999999999,382.86516853932585,60.99999999999999,384.4943820224719,60.99999999999999C386.1235955056179,60.99999999999999,386.1235955056179,58.49999999999999,387.752808988764,58.49999999999999C389.3820224719101,58.49999999999999,389.3820224719101,59.50000000000001,391.0112359550562,59.50000000000001C392.64044943820227,59.50000000000001,392.64044943820227,56.5,394.2696629213483,56.5C395.8988764044944,56.5,395.8988764044944,59,397.5280898876405,59C399.1573033707865,59,399.1573033707865,59.50000000000001,400.7865168539326,59.50000000000001C402.4157303370787,59.50000000000001,402.4157303370787,62.5,404.0449438202247,62.5C405.6741573033708,62.5,405.6741573033708,57.00000000000001,407.3033707865169,57.00000000000001C408.9325842696629,57.00000000000001,408.9325842696629,60,410.56179775280896,60C412.191011235955,60,412.191011235955,59.50000000000001,413.8202247191011,59.50000000000001C415.44943820224717,59.50000000000001,415.44943820224717,62.00000000000001,417.07865168539325,62.00000000000001C418.70786516853934,62.00000000000001,418.70786516853934,62.5,420.3370786516854,62.5C421.96629213483146,62.5,421.96629213483146,62.00000000000001,423.59550561797755,62.00000000000001C425.2247191011236,62.00000000000001,425.2247191011236,65,426.85393258426967,65C428.48314606741576,65,428.48314606741576,63,430.1123595505618,63C431.7415730337079,63,431.7415730337079,66,433.37078651685397,66C435,66,435,63,436.62921348314603,63C438.2584269662921,63,438.2584269662921,63.5,439.8876404494382,63.5C441.51685393258424,63.5,441.51685393258424,65,443.14606741573033,65C444.7752808988764,65,444.7752808988764,64.5,446.40449438202245,64.5C448.03370786516854,64.5,448.03370786516854,65,449.6629213483146,65C451.29213483146066,65,451.29213483146066,64.5,452.92134831460675,64.5C454.55056179775283,64.5,454.55056179775283,64.5,456.1797752808989,64.5C457.808988764045,64.5,457.808988764045,64.5,459.43820224719104,64.5C461.0674157303371,64.5,461.0674157303371,64.5,462.6966292134831,64.5C464.3258426966292,64.5,464.3258426966292,64,465.9550561797753,64C467.5842696629213,64,467.5842696629213,63,469.2134831460674,63C470.8426966292135,63,470.8426966292135,62.5,472.4719101123595,62.5C474.1011235955056,62.5,474.1011235955056,64.5,475.7303370786517,64.5C477.35955056179773,64.5,477.35955056179773,62.00000000000001,478.9887640449438,62.00000000000001C480.6179775280899,62.00000000000001,480.6179775280899,60.99999999999999,482.247191011236,60.99999999999999C483.8764044943821,60.99999999999999,483.8764044943821,60.99999999999999,485.5056179775281,60.99999999999999C487.13483146067415,60.99999999999999,487.13483146067415,61.5,488.7640449438202,61.5C490.39325842696627,61.5,490.39325842696627,62.00000000000001,492.02247191011236,62.00000000000001C493.6516853932584,62.00000000000001,493.6516853932584,61.5,495.2808988764045,61.5C496.91011235955057,61.5,496.91011235955057,62.5,498.5393258426966,62.5C500.1685393258427,62.5,500.1685393258427,60.99999999999999,501.7977528089888,60.99999999999999C503.4269662921348,60.99999999999999,503.4269662921348,61.5,505.0561797752809,61.5C506.685393258427,61.5,506.685393258427,62.00000000000001,508.3146067415731,62.00000000000001C509.94382022471916,62.00000000000001,509.94382022471916,62.5,511.5730337078652,62.5C513.2022471910112,62.5,513.2022471910112,63,514.8314606741573,63C516.4606741573034,63,516.4606741573034,63.5,518.0898876404494,63.5C519.7191011235955,63.5,519.7191011235955,63.5,521.3483146067416,63.5C522.9775280898876,63.5,522.9775280898876,64,524.6067415730337,64C526.2359550561798,64,526.2359550561798,64,527.8651685393259,64C529.4943820224719,64,529.4943820224719,63.5,531.123595505618,63.5C532.7528089887641,63.5,532.7528089887641,64.5,534.3820224719101,64.5C536.0112359550562,64.5,536.0112359550562,63.5,537.6404494382023,63.5C539.2696629213483,63.5,539.2696629213483,63.5,540.8988764044943,63.5C542.5280898876404,63.5,542.5280898876404,62.5,544.1573033707865,62.5C545.7865168539327,62.5,545.7865168539327,64,547.4157303370787,64C549.0449438202247,64,549.0449438202247,63.5,550.6741573033707,63.5C552.3033707865168,63.5,552.3033707865168,63.5,553.9325842696629,63.5C555.5617977528091,63.5,555.5617977528091,64.5,557.1910112359551,64.5C558.8202247191011,64.5,558.8202247191011,64,560.4494382022472,64C562.0786516853932,64,562.0786516853932,63.5,563.7078651685393,63.5C565.3370786516854,63.5,565.3370786516854,64.5,566.9662921348314,64.5C568.5955056179776,64.5,568.5955056179776,64.5,570.2247191011236,64.5C571.8539325842696,64.5,571.8539325842696,64.5,573.4831460674158,64.5C575.1123595505618,64.5,575.1123595505618,65,576.7415730337078,65C578.370786516854,65,578.370786516854,65,580,65L580,85C578.370786516854,85,578.370786516854,85,576.7415730337078,85C575.1123595505618,85,575.1123595505618,85.5,573.4831460674158,85.5C571.8539325842696,85.5,571.8539325842696,85.5,570.2247191011236,85.5C568.5955056179776,85.5,568.5955056179776,84.5,566.9662921348314,84.5C565.3370786516854,84.5,565.3370786516854,84.5,563.7078651685393,84.5C562.0786516853932,84.5,562.0786516853932,85,560.4494382022472,85C558.8202247191011,85,558.8202247191011,84.5,557.1910112359551,84.5C555.5617977528091,84.5,555.5617977528091,85.5,553.9325842696629,85.5C552.3033707865168,85.5,552.3033707865168,84.5,550.6741573033707,84.5C549.0449438202247,84.5,549.0449438202247,85,547.4157303370787,85C545.7865168539327,85,545.7865168539327,86.5,544.1573033707865,86.5C542.5280898876404,86.5,542.5280898876404,85.5,540.8988764044943,85.5C539.2696629213483,85.5,539.2696629213483,85.5,537.6404494382023,85.5C536.0112359550562,85.5,536.0112359550562,84.5,534.3820224719101,84.5C532.7528089887641,84.5,532.7528089887641,84.5,531.123595505618,84.5C529.4943820224719,84.5,529.4943820224719,84,527.8651685393259,84C526.2359550561798,84,526.2359550561798,85,524.6067415730337,85C522.9775280898876,85,522.9775280898876,84.5,521.3483146067416,84.5C519.7191011235955,84.5,519.7191011235955,84.5,518.0898876404494,84.5C516.4606741573034,84.5,516.4606741573034,85,514.8314606741573,85C513.2022471910112,85,513.2022471910112,84.5,511.5730337078652,84.5C509.94382022471916,84.5,509.94382022471916,86,508.3146067415731,86C506.685393258427,86,506.685393258427,85.5,505.0561797752809,85.5C503.4269662921348,85.5,503.4269662921348,86,501.7977528089888,86C500.1685393258427,86,500.1685393258427,84.5,498.5393258426966,84.5C496.91011235955057,84.5,496.91011235955057,85.5,495.2808988764045,85.5C493.6516853932584,85.5,493.6516853932584,85,492.02247191011236,85C490.39325842696627,85,490.39325842696627,85.5,488.7640449438202,85.5C487.13483146067415,85.5,487.13483146067415,85,485.5056179775281,85C483.8764044943821,85,483.8764044943821,85,482.247191011236,85C480.6179775280899,85,480.6179775280899,85,478.9887640449438,85C477.35955056179773,85,477.35955056179773,83.5,475.7303370786517,83.5C474.1011235955056,83.5,474.1011235955056,84.5,472.4719101123595,84.5C470.8426966292135,84.5,470.8426966292135,84,469.2134831460674,84C467.5842696629213,84,467.5842696629213,84,465.9550561797753,84C464.3258426966292,84,464.3258426966292,83.5,462.6966292134831,83.5C461.0674157303371,83.5,461.0674157303371,84.5,459.43820224719104,84.5C457.808988764045,84.5,457.808988764045,82.5,456.1797752808989,82.5C454.55056179775283,82.5,454.55056179775283,82.5,452.92134831460675,82.5C451.29213483146066,82.5,451.29213483146066,83,449.6629213483146,83C448.03370786516854,83,448.03370786516854,83.5,446.40449438202245,83.5C444.7752808988764,83.5,444.7752808988764,84,443.14606741573033,84C441.51685393258424,84,441.51685393258424,84.5,439.8876404494382,84.5C438.2584269662921,84.5,438.2584269662921,83,436.62921348314603,83C435,83,435,83,433.37078651685397,83C431.7415730337079,83,431.7415730337079,84,430.1123595505618,84C428.48314606741576,84,428.48314606741576,85,426.85393258426967,85C425.2247191011236,85,425.2247191011236,85,423.59550561797755,85C421.96629213483146,85,421.96629213483146,86.5,420.3370786516854,86.5C418.70786516853934,86.5,418.70786516853934,86,417.07865168539325,86C415.44943820224717,86,415.44943820224717,84.5,413.8202247191011,84.5C412.191011235955,84.5,412.191011235955,86,410.56179775280896,86C408.9325842696629,86,408.9325842696629,87,407.3033707865169,87C405.6741573033708,87,405.6741573033708,86.5,404.0449438202247,86.5C402.4157303370787,86.5,402.4157303370787,86.5,400.7865168539326,86.5C399.1573033707865,86.5,399.1573033707865,85,397.5280898876405,85C395.8988764044944,85,395.8988764044944,89.5,394.2696629213483,89.5C392.64044943820227,89.5,392.64044943820227,86.5,391.0112359550562,86.5C389.3820224719101,86.5,389.3820224719101,88.5,387.752808988764,88.5C386.1235955056179,88.5,386.1235955056179,87,384.4943820224719,87C382.86516853932585,87,382.86516853932585,90,381.2359550561798,90C379.60674157303373,90,379.60674157303373,89,377.97752808988764,89C376.3483146067416,89,376.3483146067416,88.5,374.7191011235955,88.5C373.08988764044943,88.5,373.08988764044943,89,371.4606741573034,89C369.8314606741573,89,369.8314606741573,89,368.2022471910112,89C366.5730337078652,89,366.5730337078652,88.5,364.9438202247191,88.5C363.314606741573,88.5,363.314606741573,89,361.6853932584269,89C360.05617977528084,89,360.05617977528084,91.5,358.4269662921348,91.5C356.7977528089888,91.5,356.7977528089888,91,355.16853932584274,91C353.53932584269666,91,353.53932584269666,88.5,351.91011235955057,88.5C350.28089887640454,88.5,350.28089887640454,91.5,348.65168539325845,91.5C347.02247191011236,91.5,347.02247191011236,93.5,345.3932584269663,93.5C343.76404494382024,93.5,343.76404494382024,89.5,342.13483146067415,89.5C340.5056179775281,89.5,340.5056179775281,85,338.87640449438203,85C337.24719101123594,85,337.24719101123594,85.5,335.61797752808985,85.5C333.98876404494376,85.5,333.98876404494376,84.5,332.35955056179773,84.5C330.7303370786517,84.5,330.7303370786517,84.5,329.10112359550567,84.5C327.4719101123596,84.5,327.4719101123596,82,325.8426966292135,82C324.21348314606746,82,324.21348314606746,83,322.5842696629214,83C320.9550561797753,83,320.9550561797753,82,319.3258426966292,82C317.6966292134831,82,317.6966292134831,82.5,316.0674157303371,82.5C314.43820224719104,82.5,314.43820224719104,82.5,312.80898876404495,82.5C311.17977528089887,82.5,311.17977528089887,82,309.5505617977528,82C307.9213483146067,82,307.9213483146067,81,306.29213483146066,81C304.6629213483146,81,304.6629213483146,82.5,303.0337078651686,82.5C301.4044943820225,82.5,301.4044943820225,82.5,299.7752808988764,82.5C298.1460674157304,82.5,298.1460674157304,84,296.5168539325843,84C294.8876404494382,84,294.8876404494382,84,293.2584269662921,84C291.62921348314603,84,291.62921348314603,80.5,290,80.5C288.37078651685397,80.5,288.37078651685397,80.5,286.7415730337079,80.5C285.1123595505618,80.5,285.1123595505618,82,283.4831460674157,82C281.8539325842696,82,281.8539325842696,85,280.2247191011236,85C278.59550561797755,85,278.59550561797755,80,276.96629213483146,80C275.3370786516854,80,275.3370786516854,79.5,273.70786516853934,79.5C272.07865168539325,79.5,272.07865168539325,90,270.44943820224717,90C268.82022471910113,90,268.82022471910113,84.5,267.19101123595505,84.5C265.56179775280896,84.5,265.56179775280896,121.5,263.9325842696629,121.5C262.3033707865169,121.5,262.3033707865169,129.5,260.6741573033708,129.5C259.0449438202247,129.5,259.0449438202247,108,257.4157303370786,108C255.7865168539326,108,255.7865168539326,81.5,254.15730337078654,81.5C252.52808988764048,81.5,252.52808988764048,86.5,250.8988764044944,86.5C249.2696629213483,86.5,249.2696629213483,85.5,247.64044943820224,85.5C246.01123595505618,85.5,246.01123595505618,114,244.3820224719101,114C242.75280898876406,114,242.75280898876406,91.5,241.123595505618,91.5C239.49438202247194,91.5,239.49438202247194,81,237.86516853932585,81C236.23595505617976,81,236.23595505617976,98.5,234.6067415730337,98.5C232.97752808988764,98.5,232.97752808988764,94,231.34831460674155,94C229.71910112359552,94,229.71910112359552,80.5,228.08988764044946,80.5C226.4606741573034,80.5,226.4606741573034,80.5,224.8314606741573,80.5C223.20224719101122,80.5,223.20224719101122,81,221.57303370786516,81C219.9438202247191,81,219.9438202247191,80,218.31460674157302,80C216.68539325842696,80,216.68539325842696,80.5,215.0561797752809,80.5C213.42696629213484,80.5,213.42696629213484,80.5,211.79775280898878,80.5C210.1685393258427,80.5,210.1685393258427,80,208.53932584269663,80C206.91011235955057,80,206.91011235955057,80,205.28089887640448,80C203.65168539325842,80,203.65168539325842,80.5,202.02247191011236,80.5C200.3932584269663,80.5,200.3932584269663,80.5,198.76404494382024,80.5C197.13483146067415,80.5,197.13483146067415,80.5,195.5056179775281,80.5C193.87640449438203,80.5,193.87640449438203,80,192.24719101123594,80C190.61797752808988,80,190.61797752808988,80,188.98876404494382,80C187.35955056179776,80,187.35955056179776,80,185.7303370786517,80C184.1011235955056,80,184.1011235955056,80,182.47191011235955,80C180.8426966292135,80,180.8426966292135,80,179.2134831460674,80C177.58426966292134,80,177.58426966292134,80,175.95505617977528,80C174.32584269662922,80,174.32584269662922,80,172.69662921348316,80C171.06741573033707,80,171.06741573033707,80,169.43820224719101,80C167.80898876404495,80,167.80898876404495,80,166.17977528089887,80C164.5505617977528,80,164.5505617977528,80,162.92134831460675,80C161.29213483146066,80,161.29213483146066,79.5,159.6629213483146,79.5C158.03370786516854,79.5,158.03370786516854,80,156.40449438202248,80C154.77528089887642,80,154.77528089887642,80,153.14606741573033,80C151.51685393258427,80,151.51685393258427,79.5,149.8876404494382,79.5C148.25842696629212,79.5,148.25842696629212,80,146.62921348314606,80C145,80,145,80,143.37078651685394,80C141.74157303370788,80,141.74157303370788,80,140.1123595505618,80C138.48314606741573,80,138.48314606741573,79.5,136.85393258426967,79.5C135.22471910112358,79.5,135.22471910112358,80,133.59550561797752,80C131.96629213483146,80,131.96629213483146,80,130.3370786516854,80C128.70786516853934,80,128.70786516853934,80,127.07865168539327,80C125.4494382022472,80,125.4494382022472,80,123.82022471910112,80C122.19101123595506,80,122.19101123595506,80,120.561797752809,80C118.93258426966293,80,118.93258426966293,80.5,117.30337078651685,80.5C115.67415730337079,80.5,115.67415730337079,80,114.04494382022473,80C112.41573033707866,80,112.41573033707866,80,110.78651685393258,80C109.15730337078651,80,109.15730337078651,79.5,107.52808988764045,79.5C105.89887640449439,79.5,105.89887640449439,80,104.26966292134831,80C102.64044943820224,80,102.64044943820224,80,101.01123595505618,80C99.38202247191012,80,99.38202247191012,80,97.75280898876404,80C96.12359550561797,80,96.12359550561797,80,94.49438202247191,80C92.86516853932585,80,92.86516853932585,80,91.23595505617978,80C89.6067415730337,80,89.6067415730337,80,87.97752808988764,80C86.34831460674158,80,86.34831460674158,79.5,84.71910112359551,79.5C83.08988764044943,79.5,83.08988764044943,80,81.46067415730337,80C79.83146067415731,80,79.83146067415731,80,78.20224719101124,80C76.57303370786516,80,76.57303370786516,80.5,74.9438202247191,80.5C73.31460674157304,80.5,73.31460674157304,80.5,71.68539325842697,80.5C70.0561797752809,80.5,70.0561797752809,80,68.42696629213484,80C66.79775280898878,80,66.79775280898878,80.5,65.1685393258427,80.5C63.53932584269663,80.5,63.53932584269663,80,61.91011235955056,80C60.28089887640449,80,60.28089887640449,80,58.651685393258425,80C57.02247191011236,80,57.02247191011236,80.5,55.39325842696629,80.5C53.764044943820224,80.5,53.764044943820224,81,52.13483146067416,81C50.50561797752809,81,50.50561797752809,81,48.87640449438202,81C47.247191011235955,81,47.247191011235955,80.5,45.61797752808989,80.5C43.98876404494382,80.5,43.98876404494382,80,42.359550561797754,80C40.73033707865169,80,40.73033707865169,80,39.10112359550562,80C37.47191011235955,80,37.47191011235955,80.5,35.842696629213485,80.5C34.21348314606742,80.5,34.21348314606742,80,32.58426966292135,80C30.955056179775283,80,30.955056179775283,79.5,29.325842696629213,79.5C27.696629213483146,79.5,27.696629213483146,80.5,26.06741573033708,80.5C24.43820224719101,80.5,24.43820224719101,80.5,22.808988764044944,80.5C21.179775280898877,80.5,21.179775280898877,80,19.55056179775281,80C17.921348314606742,80,17.921348314606742,80,16.292134831460675,80C14.662921348314608,80,14.662921348314608,80,13.03370786516854,80C11.404494382022472,80,11.404494382022472,80,9.775280898876405,80C8.146067415730338,80,8.146067415730338,80,6.51685393258427,80C4.887640449438202,80,4.887640449438202,80.5,3.258426966292135,80.5C1.6292134831460674,80.5,1.6292134831460674,80.5,0,80.5Z"
             id="path5">
            <title
               id="title3">Javier Milei</title>
          </path>
          <path
             fill="#4a90e2"
             d="M0,81.5C1.6292134831460674,81.5,1.6292134831460674,81.5,3.258426966292135,81.5C4.887640449438202,81.5,4.887640449438202,81,6.51685393258427,81C8.146067415730338,81,8.146067415730338,81,9.775280898876405,81C11.404494382022472,81,11.404494382022472,81,13.03370786516854,81C14.662921348314608,81,14.662921348314608,81,16.292134831460675,81C17.921348314606742,81,17.921348314606742,81,19.55056179775281,81C21.179775280898877,81,21.179775280898877,81.5,22.808988764044944,81.5C24.43820224719101,81.5,24.43820224719101,81.5,26.06741573033708,81.5C27.696629213483146,81.5,27.696629213483146,80.5,29.325842696629213,80.5C30.955056179775283,80.5,30.955056179775283,81,32.58426966292135,81C34.21348314606742,81,34.21348314606742,81.5,35.842696629213485,81.5C37.47191011235955,81.5,37.47191011235955,81,39.10112359550562,81C40.73033707865169,81,40.73033707865169,81,42.359550561797754,81C43.98876404494382,81,43.98876404494382,81.5,45.61797752808989,81.5C47.247191011235955,81.5,47.247191011235955,82,48.87640449438202,82C50.50561797752809,82,50.50561797752809,82,52.13483146067416,82C53.764044943820224,82,53.764044943820224,81.5,55.39325842696629,81.5C57.02247191011236,81.5,57.02247191011236,81,58.651685393258425,81C60.28089887640449,81,60.28089887640449,81,61.91011235955056,81C63.53932584269663,81,63.53932584269663,81.5,65.1685393258427,81.5C66.79775280898878,81.5,66.79775280898878,81,68.42696629213484,81C70.0561797752809,81,70.0561797752809,81.5,71.68539325842697,81.5C73.31460674157304,81.5,73.31460674157304,81.5,74.9438202247191,81.5C76.57303370786516,81.5,76.57303370786516,81,78.20224719101124,81C79.83146067415731,81,79.83146067415731,81,81.46067415730337,81C83.08988764044943,81,83.08988764044943,80.5,84.71910112359551,80.5C86.34831460674158,80.5,86.34831460674158,81,87.97752808988764,81C89.6067415730337,81,89.6067415730337,81,91.23595505617978,81C92.86516853932585,81,92.86516853932585,81,94.49438202247191,81C96.12359550561797,81,96.12359550561797,81,97.75280898876404,81C99.38202247191012,81,99.38202247191012,81,101.01123595505618,81C102.64044943820224,81,102.64044943820224,81,104.26966292134831,81C105.89887640449439,81,105.89887640449439,80.5,107.52808988764045,80.5C109.15730337078651,80.5,109.15730337078651,81,110.78651685393258,81C112.41573033707866,81,112.41573033707866,81,114.04494382022473,81C115.67415730337079,81,115.67415730337079,81.5,117.30337078651685,81.5C118.93258426966293,81.5,118.93258426966293,81,120.561797752809,81C122.19101123595506,81,122.19101123595506,81,123.82022471910112,81C125.4494382022472,81,125.4494382022472,81,127.07865168539327,81C128.70786516853934,81,128.70786516853934,81,130.3370786516854,81C131.96629213483146,81,131.96629213483146,81,133.59550561797752,81C135.22471910112358,81,135.22471910112358,80.5,136.85393258426967,80.5C138.48314606741573,80.5,138.48314606741573,81,140.1123595505618,81C141.74157303370788,81,141.74157303370788,81,143.37078651685394,81C145,81,145,81,146.62921348314606,81C148.25842696629212,81,148.25842696629212,80.5,149.8876404494382,80.5C151.51685393258427,80.5,151.51685393258427,81,153.14606741573033,81C154.77528089887642,81,154.77528089887642,81,156.40449438202248,81C158.03370786516854,81,158.03370786516854,80.5,159.6629213483146,80.5C161.29213483146066,80.5,161.29213483146066,81,162.92134831460675,81C164.5505617977528,81,164.5505617977528,81,166.17977528089887,81C167.80898876404495,81,167.80898876404495,81,169.43820224719101,81C171.06741573033707,81,171.06741573033707,81,172.69662921348316,81C174.32584269662922,81,174.32584269662922,81,175.95505617977528,81C177.58426966292134,81,177.58426966292134,81,179.2134831460674,81C180.8426966292135,81,180.8426966292135,81,182.47191011235955,81C184.1011235955056,81,184.1011235955056,81,185.7303370786517,81C187.35955056179776,81,187.35955056179776,81,188.98876404494382,81C190.61797752808988,81,190.61797752808988,81,192.24719101123594,81C193.87640449438203,81,193.87640449438203,81.5,195.5056179775281,81.5C197.13483146067415,81.5,197.13483146067415,81.5,198.76404494382024,81.5C200.3932584269663,81.5,200.3932584269663,81.5,202.02247191011236,81.5C203.65168539325842,81.5,203.65168539325842,81,205.28089887640448,81C206.91011235955057,81,206.91011235955057,81,208.53932584269663,81C210.1685393258427,81,210.1685393258427,81.5,211.79775280898878,81.5C213.42696629213484,81.5,213.42696629213484,81.5,215.0561797752809,81.5C216.68539325842696,81.5,216.68539325842696,81,218.31460674157302,81C219.9438202247191,81,219.9438202247191,82,221.57303370786516,82C223.20224719101122,82,223.20224719101122,81.5,224.8314606741573,81.5C226.4606741573034,81.5,226.4606741573034,81.5,228.08988764044946,81.5C229.71910112359552,81.5,229.71910112359552,65,231.34831460674155,65C232.97752808988764,65,232.97752808988764,60.5,234.6067415730337,60.5C236.23595505617976,60.5,236.23595505617976,82,237.86516853932585,82C239.49438202247194,82,239.49438202247194,92.5,241.123595505618,92.5C242.75280898876406,92.5,242.75280898876406,45,244.3820224719101,45C246.01123595505618,45,246.01123595505618,86.5,247.64044943820224,86.5C249.2696629213483,86.5,249.2696629213483,87.5,250.8988764044944,87.5C252.52808988764048,87.5,252.52808988764048,82.5,254.15730337078654,82.5C255.7865168539326,82.5,255.7865168539326,109,257.4157303370786,109C259.0449438202247,109,259.0449438202247,29.500000000000007,260.6741573033708,29.500000000000007C262.3033707865169,29.500000000000007,262.3033707865169,37.5,263.9325842696629,37.5C265.56179775280896,37.5,265.56179775280896,85.5,267.19101123595505,85.5C268.82022471910113,85.5,268.82022471910113,91,270.44943820224717,91C272.07865168539325,91,272.07865168539325,80.5,273.70786516853934,80.5C275.3370786516854,80.5,275.3370786516854,81,276.96629213483146,81C278.59550561797755,81,278.59550561797755,86,280.2247191011236,86C281.8539325842696,86,281.8539325842696,83,283.4831460674157,83C285.1123595505618,83,285.1123595505618,81.5,286.7415730337079,81.5C288.37078651685397,81.5,288.37078651685397,81.5,290,81.5C291.62921348314603,81.5,291.62921348314603,85,293.2584269662921,85C294.8876404494382,85,294.8876404494382,85,296.5168539325843,85C298.1460674157304,85,298.1460674157304,83.5,299.7752808988764,83.5C301.4044943820225,83.5,301.4044943820225,83.5,303.0337078651686,83.5C304.6629213483146,83.5,304.6629213483146,82,306.29213483146066,82C307.9213483146067,82,307.9213483146067,83,309.5505617977528,83C311.17977528089887,83,311.17977528089887,83.5,312.80898876404495,83.5C314.43820224719104,83.5,314.43820224719104,83.5,316.0674157303371,83.5C317.6966292134831,83.5,317.6966292134831,83,319.3258426966292,83C320.9550561797753,83,320.9550561797753,84,322.5842696629214,84C324.21348314606746,84,324.21348314606746,83,325.8426966292135,83C327.4719101123596,83,327.4719101123596,85.5,329.10112359550567,85.5C330.7303370786517,85.5,330.7303370786517,85.5,332.35955056179773,85.5C333.98876404494376,85.5,333.98876404494376,86.5,335.61797752808985,86.5C337.24719101123594,86.5,337.24719101123594,86,338.87640449438203,86C340.5056179775281,86,340.5056179775281,90.5,342.13483146067415,90.5C343.76404494382024,90.5,343.76404494382024,94.5,345.3932584269663,94.5C347.02247191011236,94.5,347.02247191011236,92.5,348.65168539325845,92.5C350.28089887640454,92.5,350.28089887640454,89.5,351.91011235955057,89.5C353.53932584269666,89.5,353.53932584269666,92,355.16853932584274,92C356.7977528089888,92,356.7977528089888,92.5,358.4269662921348,92.5C360.05617977528084,92.5,360.05617977528084,90,361.6853932584269,90C363.314606741573,90,363.314606741573,89.5,364.9438202247191,89.5C366.5730337078652,89.5,366.5730337078652,90,368.2022471910112,90C369.8314606741573,90,369.8314606741573,90,371.4606741573034,90C373.08988764044943,90,373.08988764044943,89.5,374.7191011235955,89.5C376.3483146067416,89.5,376.3483146067416,90,377.97752808988764,90C379.60674157303373,90,379.60674157303373,91,381.2359550561798,91C382.86516853932585,91,382.86516853932585,88,384.4943820224719,88C386.1235955056179,88,386.1235955056179,89.5,387.752808988764,89.5C389.3820224719101,89.5,389.3820224719101,87.5,391.0112359550562,87.5C392.64044943820227,87.5,392.64044943820227,90.5,394.2696629213483,90.5C395.8988764044944,90.5,395.8988764044944,86,397.5280898876405,86C399.1573033707865,86,399.1573033707865,87.5,400.7865168539326,87.5C402.4157303370787,87.5,402.4157303370787,87.5,404.0449438202247,87.5C405.6741573033708,87.5,405.6741573033708,88,407.3033707865169,88C408.9325842696629,88,408.9325842696629,87,410.56179775280896,87C412.191011235955,87,412.191011235955,85.5,413.8202247191011,85.5C415.44943820224717,85.5,415.44943820224717,87,417.07865168539325,87C418.70786516853934,87,418.70786516853934,87.5,420.3370786516854,87.5C421.96629213483146,87.5,421.96629213483146,86,423.59550561797755,86C425.2247191011236,86,425.2247191011236,86,426.85393258426967,86C428.48314606741576,86,428.48314606741576,85,430.1123595505618,85C431.7415730337079,85,431.7415730337079,84,433.37078651685397,84C435,84,435,84,436.62921348314603,84C438.2584269662921,84,438.2584269662921,85.5,439.8876404494382,85.5C441.51685393258424,85.5,441.51685393258424,85,443.14606741573033,85C444.7752808988764,85,444.7752808988764,84.5,446.40449438202245,84.5C448.03370786516854,84.5,448.03370786516854,84,449.6629213483146,84C451.29213483146066,84,451.29213483146066,83.5,452.92134831460675,83.5C454.55056179775283,83.5,454.55056179775283,83.5,456.1797752808989,83.5C457.808988764045,83.5,457.808988764045,85.5,459.43820224719104,85.5C461.0674157303371,85.5,461.0674157303371,84.5,462.6966292134831,84.5C464.3258426966292,84.5,464.3258426966292,85,465.9550561797753,85C467.5842696629213,85,467.5842696629213,85,469.2134831460674,85C470.8426966292135,85,470.8426966292135,85.5,472.4719101123595,85.5C474.1011235955056,85.5,474.1011235955056,84.5,475.7303370786517,84.5C477.35955056179773,84.5,477.35955056179773,86,478.9887640449438,86C480.6179775280899,86,480.6179775280899,86,482.247191011236,86C483.8764044943821,86,483.8764044943821,86,485.5056179775281,86C487.13483146067415,86,487.13483146067415,86.5,488.7640449438202,86.5C490.39325842696627,86.5,490.39325842696627,86,492.02247191011236,86C493.6516853932584,86,493.6516853932584,86.5,495.2808988764045,86.5C496.91011235955057,86.5,496.91011235955057,85.5,498.5393258426966,85.5C500.1685393258427,85.5,500.1685393258427,87,501.7977528089888,87C503.4269662921348,87,503.4269662921348,86.5,505.0561797752809,86.5C506.685393258427,86.5,506.685393258427,87,508.3146067415731,87C509.94382022471916,87,509.94382022471916,85.5,511.5730337078652,85.5C513.2022471910112,85.5,513.2022471910112,86,514.8314606741573,86C516.4606741573034,86,516.4606741573034,85.5,518.0898876404494,85.5C519.7191011235955,85.5,519.7191011235955,85.5,521.3483146067416,85.5C522.9775280898876,85.5,522.9775280898876,86,524.6067415730337,86C526.2359550561798,86,526.2359550561798,85,527.8651685393259,85C529.4943820224719,85,529.4943820224719,85.5,531.123595505618,85.5C532.7528089887641,85.5,532.7528089887641,85.5,534.3820224719101,85.5C536.0112359550562,85.5,536.0112359550562,86.5,537.6404494382023,86.5C539.2696629213483,86.5,539.2696629213483,86.5,540.8988764044943,86.5C542.5280898876404,86.5,542.5280898876404,87.5,544.1573033707865,87.5C545.7865168539327,87.5,545.7865168539327,86,547.4157303370787,86C549.0449438202247,86,549.0449438202247,85.5,550.6741573033707,85.5C552.3033707865168,85.5,552.3033707865168,86.5,553.9325842696629,86.5C555.5617977528091,86.5,555.5617977528091,85.5,557.1910112359551,85.5C558.8202247191011,85.5,558.8202247191011,86,560.4494382022472,86C562.0786516853932,86,562.0786516853932,85.5,563.7078651685393,85.5C565.3370786516854,85.5,565.3370786516854,85.5,566.9662921348314,85.5C568.5955056179776,85.5,568.5955056179776,86.5,570.2247191011236,86.5C571.8539325842696,86.5,571.8539325842696,86.5,573.4831460674158,86.5C575.1123595505618,86.5,575.1123595505618,86,576.7415730337078,86C578.370786516854,86,578.370786516854,86,580,86L580,94C578.370786516854,94,578.370786516854,94,576.7415730337078,94C575.1123595505618,94,575.1123595505618,94.5,573.4831460674158,94.5C571.8539325842696,94.5,571.8539325842696,94.5,570.2247191011236,94.5C568.5955056179776,94.5,568.5955056179776,94.5,566.9662921348314,94.5C565.3370786516854,94.5,565.3370786516854,95.5,563.7078651685393,95.5C562.0786516853932,95.5,562.0786516853932,95,560.4494382022472,95C558.8202247191011,95,558.8202247191011,94.5,557.1910112359551,94.5C555.5617977528091,94.5,555.5617977528091,95.5,553.9325842696629,95.5C552.3033707865168,95.5,552.3033707865168,95.5,550.6741573033707,95.5C549.0449438202247,95.5,549.0449438202247,95,547.4157303370787,95C545.7865168539327,95,545.7865168539327,96.5,544.1573033707865,96.5C542.5280898876404,96.5,542.5280898876404,95.5,540.8988764044943,95.5C539.2696629213483,95.5,539.2696629213483,95.5,537.6404494382023,95.5C536.0112359550562,95.5,536.0112359550562,94.5,534.3820224719101,94.5C532.7528089887641,94.5,532.7528089887641,95.5,531.123595505618,95.5C529.4943820224719,95.5,529.4943820224719,95,527.8651685393259,95C526.2359550561798,95,526.2359550561798,95,524.6067415730337,95C522.9775280898876,95,522.9775280898876,95.5,521.3483146067416,95.5C519.7191011235955,95.5,519.7191011235955,95.5,518.0898876404494,95.5C516.4606741573034,95.5,516.4606741573034,96,514.8314606741573,96C513.2022471910112,96,513.2022471910112,96.5,511.5730337078652,96.5C509.94382022471916,96.5,509.94382022471916,97,508.3146067415731,97C506.685393258427,97,506.685393258427,97.5,505.0561797752809,97.5C503.4269662921348,97.5,503.4269662921348,98,501.7977528089888,98C500.1685393258427,98,500.1685393258427,96.5,498.5393258426966,96.5C496.91011235955057,96.5,496.91011235955057,97.5,495.2808988764045,97.5C493.6516853932584,97.5,493.6516853932584,97,492.02247191011236,97C490.39325842696627,97,490.39325842696627,97.5,488.7640449438202,97.5C487.13483146067415,97.5,487.13483146067415,98,485.5056179775281,98C483.8764044943821,98,483.8764044943821,98,482.247191011236,98C480.6179775280899,98,480.6179775280899,97,478.9887640449438,97C477.35955056179773,97,477.35955056179773,94.5,475.7303370786517,94.5C474.1011235955056,94.5,474.1011235955056,96.5,472.4719101123595,96.5C470.8426966292135,96.5,470.8426966292135,96,469.2134831460674,96C467.5842696629213,96,467.5842696629213,95,465.9550561797753,95C464.3258426966292,95,464.3258426966292,94.5,462.6966292134831,94.5C461.0674157303371,94.5,461.0674157303371,94.5,459.43820224719104,94.5C457.808988764045,94.5,457.808988764045,94.5,456.1797752808989,94.5C454.55056179775283,94.5,454.55056179775283,94.5,452.92134831460675,94.5C451.29213483146066,94.5,451.29213483146066,94,449.6629213483146,94C448.03370786516854,94,448.03370786516854,94.5,446.40449438202245,94.5C444.7752808988764,94.5,444.7752808988764,94,443.14606741573033,94C441.51685393258424,94,441.51685393258424,95.5,439.8876404494382,95.5C438.2584269662921,95.5,438.2584269662921,96,436.62921348314603,96C435,96,435,93,433.37078651685397,93C431.7415730337079,93,431.7415730337079,96,430.1123595505618,96C428.48314606741576,96,428.48314606741576,94,426.85393258426967,94C425.2247191011236,94,425.2247191011236,97,423.59550561797755,97C421.96629213483146,97,421.96629213483146,96.5,420.3370786516854,96.5C418.70786516853934,96.5,418.70786516853934,97,417.07865168539325,97C415.44943820224717,97,415.44943820224717,99.5,413.8202247191011,99.5C412.191011235955,99.5,412.191011235955,99,410.56179775280896,99C408.9325842696629,99,408.9325842696629,102,407.3033707865169,102C405.6741573033708,102,405.6741573033708,96.5,404.0449438202247,96.5C402.4157303370787,96.5,402.4157303370787,99.5,400.7865168539326,99.5C399.1573033707865,99.5,399.1573033707865,100,397.5280898876405,100C395.8988764044944,100,395.8988764044944,102.5,394.2696629213483,102.5C392.64044943820227,102.5,392.64044943820227,99.5,391.0112359550562,99.5C389.3820224719101,99.5,389.3820224719101,100.5,387.752808988764,100.5C386.1235955056179,100.5,386.1235955056179,98,384.4943820224719,98C382.86516853932585,98,382.86516853932585,103,381.2359550561798,103C379.60674157303373,103,379.60674157303373,102,377.97752808988764,102C376.3483146067416,102,376.3483146067416,103.5,374.7191011235955,103.5C373.08988764044943,103.5,373.08988764044943,105,371.4606741573034,105C369.8314606741573,105,369.8314606741573,106,368.2022471910112,106C366.5730337078652,106,366.5730337078652,105.5,364.9438202247191,105.5C363.314606741573,105.5,363.314606741573,107,361.6853932584269,107C360.05617977528084,107,360.05617977528084,106.5,358.4269662921348,106.5C356.7977528089888,106.5,356.7977528089888,108,355.16853932584274,108C353.53932584269666,108,353.53932584269666,105.5,351.91011235955057,105.5C350.28089887640454,105.5,350.28089887640454,108.5,348.65168539325845,108.5C347.02247191011236,108.5,347.02247191011236,110.5,345.3932584269663,110.5C343.76404494382024,110.5,343.76404494382024,105.5,342.13483146067415,105.5C340.5056179775281,105.5,340.5056179775281,104,338.87640449438203,104C337.24719101123594,104,337.24719101123594,105.5,335.61797752808985,105.5C333.98876404494376,105.5,333.98876404494376,104.5,332.35955056179773,104.5C330.7303370786517,104.5,330.7303370786517,104.5,329.10112359550567,104.5C327.4719101123596,104.5,327.4719101123596,103,325.8426966292135,103C324.21348314606746,103,324.21348314606746,104,322.5842696629214,104C320.9550561797753,104,320.9550561797753,105,319.3258426966292,105C317.6966292134831,105,317.6966292134831,105.5,316.0674157303371,105.5C314.43820224719104,105.5,314.43820224719104,103.5,312.80898876404495,103.5C311.17977528089887,103.5,311.17977528089887,102,309.5505617977528,102C307.9213483146067,102,307.9213483146067,105,306.29213483146066,105C304.6629213483146,105,304.6629213483146,106.5,303.0337078651686,106.5C301.4044943820225,106.5,301.4044943820225,110.5,299.7752808988764,110.5C298.1460674157304,110.5,298.1460674157304,113,296.5168539325843,113C294.8876404494382,113,294.8876404494382,111,293.2584269662921,111C291.62921348314603,111,291.62921348314603,111.5,290,111.5C288.37078651685397,111.5,288.37078651685397,117.5,286.7415730337079,117.5C285.1123595505618,117.5,285.1123595505618,117,283.4831460674157,117C281.8539325842696,117,281.8539325842696,124,280.2247191011236,124C278.59550561797755,124,278.59550561797755,120,276.96629213483146,120C275.3370786516854,120,275.3370786516854,121.5,273.70786516853934,121.5C272.07865168539325,121.5,272.07865168539325,128,270.44943820224717,128C268.82022471910113,128,268.82022471910113,126.5,267.19101123595505,126.5C265.56179775280896,126.5,265.56179775280896,79.5,263.9325842696629,79.5C262.3033707865169,79.5,262.3033707865169,80.5,260.6741573033708,80.5C259.0449438202247,80.5,259.0449438202247,151,257.4157303370786,151C255.7865168539326,151,255.7865168539326,119.5,254.15730337078654,119.5C252.52808988764048,119.5,252.52808988764048,124.5,250.8988764044944,124.5C249.2696629213483,124.5,249.2696629213483,142.5,247.64044943820224,142.5C246.01123595505618,142.5,246.01123595505618,79,244.3820224719101,79C242.75280898876406,79,242.75280898876406,116.5,241.123595505618,116.5C239.49438202247194,116.5,239.49438202247194,110,237.86516853932585,110C236.23595505617976,110,236.23595505617976,79.5,234.6067415730337,79.5C232.97752808988764,79.5,232.97752808988764,79,231.34831460674155,79C229.71910112359552,79,229.71910112359552,91.5,228.08988764044946,91.5C226.4606741573034,91.5,226.4606741573034,90.5,224.8314606741573,90.5C223.20224719101122,90.5,223.20224719101122,90,221.57303370786516,90C219.9438202247191,90,219.9438202247191,89,218.31460674157302,89C216.68539325842696,89,216.68539325842696,88.5,215.0561797752809,88.5C213.42696629213484,88.5,213.42696629213484,88.5,211.79775280898878,88.5C210.1685393258427,88.5,210.1685393258427,89,208.53932584269663,89C206.91011235955057,89,206.91011235955057,89,205.28089887640448,89C203.65168539325842,89,203.65168539325842,87.5,202.02247191011236,87.5C200.3932584269663,87.5,200.3932584269663,87.5,198.76404494382024,87.5C197.13483146067415,87.5,197.13483146067415,87.5,195.5056179775281,87.5C193.87640449438203,87.5,193.87640449438203,87,192.24719101123594,87C190.61797752808988,87,190.61797752808988,87,188.98876404494382,87C187.35955056179776,87,187.35955056179776,86,185.7303370786517,86C184.1011235955056,86,184.1011235955056,87,182.47191011235955,87C180.8426966292135,87,180.8426966292135,86,179.2134831460674,86C177.58426966292134,86,177.58426966292134,85,175.95505617977528,85C174.32584269662922,85,174.32584269662922,84,172.69662921348316,84C171.06741573033707,84,171.06741573033707,85,169.43820224719101,85C167.80898876404495,85,167.80898876404495,85,166.17977528089887,85C164.5505617977528,85,164.5505617977528,85,162.92134831460675,85C161.29213483146066,85,161.29213483146066,85.5,159.6629213483146,85.5C158.03370786516854,85.5,158.03370786516854,85,156.40449438202248,85C154.77528089887642,85,154.77528089887642,85,153.14606741573033,85C151.51685393258427,85,151.51685393258427,85.5,149.8876404494382,85.5C148.25842696629212,85.5,148.25842696629212,85,146.62921348314606,85C145,85,145,85,143.37078651685394,85C141.74157303370788,85,141.74157303370788,85,140.1123595505618,85C138.48314606741573,85,138.48314606741573,84.5,136.85393258426967,84.5C135.22471910112358,84.5,135.22471910112358,85,133.59550561797752,85C131.96629213483146,85,131.96629213483146,85,130.3370786516854,85C128.70786516853934,85,128.70786516853934,84,127.07865168539327,84C125.4494382022472,84,125.4494382022472,84,123.82022471910112,84C122.19101123595506,84,122.19101123595506,84,120.561797752809,84C118.93258426966293,84,118.93258426966293,84.5,117.30337078651685,84.5C115.67415730337079,84.5,115.67415730337079,85,114.04494382022473,85C112.41573033707866,85,112.41573033707866,84,110.78651685393258,84C109.15730337078651,84,109.15730337078651,84.5,107.52808988764045,84.5C105.89887640449439,84.5,105.89887640449439,85,104.26966292134831,85C102.64044943820224,85,102.64044943820224,85,101.01123595505618,85C99.38202247191012,85,99.38202247191012,85,97.75280898876404,85C96.12359550561797,85,96.12359550561797,85,94.49438202247191,85C92.86516853932585,85,92.86516853932585,85,91.23595505617978,85C89.6067415730337,85,89.6067415730337,85,87.97752808988764,85C86.34831460674158,85,86.34831460674158,84.5,84.71910112359551,84.5C83.08988764044943,84.5,83.08988764044943,85,81.46067415730337,85C79.83146067415731,85,79.83146067415731,85,78.20224719101124,85C76.57303370786516,85,76.57303370786516,85.5,74.9438202247191,85.5C73.31460674157304,85.5,73.31460674157304,86.5,71.68539325842697,86.5C70.0561797752809,86.5,70.0561797752809,86,68.42696629213484,86C66.79775280898878,86,66.79775280898878,85.5,65.1685393258427,85.5C63.53932584269663,85.5,63.53932584269663,85,61.91011235955056,85C60.28089887640449,85,60.28089887640449,86,58.651685393258425,86C57.02247191011236,86,57.02247191011236,85.5,55.39325842696629,85.5C53.764044943820224,85.5,53.764044943820224,86,52.13483146067416,86C50.50561797752809,86,50.50561797752809,86,48.87640449438202,86C47.247191011235955,86,47.247191011235955,85.5,45.61797752808989,85.5C43.98876404494382,85.5,43.98876404494382,86,42.359550561797754,86C40.73033707865169,86,40.73033707865169,85,39.10112359550562,85C37.47191011235955,85,37.47191011235955,85.5,35.842696629213485,85.5C34.21348314606742,85.5,34.21348314606742,86,32.58426966292135,86C30.955056179775283,86,30.955056179775283,85.5,29.325842696629213,85.5C27.696629213483146,85.5,27.696629213483146,85.5,26.06741573033708,85.5C24.43820224719101,85.5,24.43820224719101,85.5,22.808988764044944,85.5C21.179775280898877,85.5,21.179775280898877,85,19.55056179775281,85C17.921348314606742,85,17.921348314606742,85,16.292134831460675,85C14.662921348314608,85,14.662921348314608,85,13.03370786516854,85C11.404494382022472,85,11.404494382022472,86,9.775280898876405,86C8.146067415730338,86,8.146067415730338,85,6.51685393258427,85C4.887640449438202,85,4.887640449438202,85.5,3.258426966292135,85.5C1.6292134831460674,85.5,1.6292134831460674,85.5,0,85.5Z"
             id="path9">
            <title
               id="title7">Sergio Massa</title>
          </path>
        </g>
        <g
           id="xAxis"
           transform="translate(0,160)"
           fill="none"
           font-size="10"
           font-family="sans-serif"
           text-anchor="middle">
          <path
             class="domain"
             stroke="currentColor"
             d="M0.5,0.5H580.5"
             id="path13" />
          <g
             class="tick"
             opacity="1"
             transform="translate(11.904494382022472,0)"
             id="g19">
            <line
               stroke="currentColor"
               y2="6"
               id="line15" />
            <text
               fill="currentColor"
               y="9"
               dy="0.71em"
               id="text17">12 PM</text>
          </g>
          <g
             class="tick"
             opacity="1"
             transform="translate(85.21910112359551,0)"
             id="g25">
            <line
               stroke="currentColor"
               y2="6"
               id="line21" />
            <text
               fill="currentColor"
               y="9"
               dy="0.71em"
               id="text23">03 PM</text>
          </g>
          <g
             class="tick"
             opacity="1"
             transform="translate(158.53370786516854,0)"
             id="g31">
            <line
               stroke="currentColor"
               y2="6"
               id="line27" />
            <text
               fill="currentColor"
               y="9"
               dy="0.71em"
               id="text29">06 PM</text>
          </g>
          <g
             class="tick"
             opacity="1"
             transform="translate(231.84831460674155,0)"
             id="g37">
            <line
               stroke="currentColor"
               y2="6"
               id="line33" />
            <text
               fill="currentColor"
               y="9"
               dy="0.71em"
               id="text35">09 PM</text>
          </g>
          <g
             class="tick"
             opacity="1"
             transform="translate(305.1629213483146,0)"
             id="g43">
            <line
               stroke="currentColor"
               y2="6"
               id="line39" />
            <text
               fill="currentColor"
               y="9"
               dy="0.71em"
               id="text41"
               style="-inkscape-font-specification:'sans-serif, Normal';font-family:sans-serif;font-weight:normal;font-style:normal;font-stretch:normal;font-variant:normal;font-size:10px;font-variant-ligatures:normal;font-variant-caps:normal;font-variant-numeric:normal;font-variant-east-asian:normal;fill:currentColor"><tspan
                 sodipodi:role="line"
                 id="tspan244">Lunes 13</tspan></text>
          </g>
          <g
             class="tick"
             opacity="1"
             transform="translate(378.47752808988764,0)"
             id="g49">
            <line
               stroke="currentColor"
               y2="6"
               id="line45" />
            <text
               fill="currentColor"
               y="9"
               dy="0.71em"
               id="text47">03 AM</text>
          </g>
          <g
             class="tick"
             opacity="1"
             transform="translate(451.79213483146066,0)"
             id="g55">
            <line
               stroke="currentColor"
               y2="6"
               id="line51" />
            <text
               fill="currentColor"
               y="9"
               dy="0.71em"
               id="text53">06 AM</text>
          </g>
          <g
             class="tick"
             opacity="1"
             transform="translate(525.1067415730337,0)"
             id="g61">
            <line
               stroke="currentColor"
               y2="6"
               id="line57" />
            <text
               fill="currentColor"
               y="9"
               dy="0.71em"
               id="text59">09 AM</text>
          </g>
        </g>
        <g
           id="labels">
          <text
             x="300.06036"
             y="70.892563"
             text-anchor="middle"
             alignment-baseline="middle"
             style="font-weight:bold;font-size:10px;font-family:Arial, sans-serif;fill:#000000"
             id="text68">Javier Milei</text>
          <text
             x="305.1611"
             y="98.632233"
             text-anchor="middle"
             alignment-baseline="middle"
             style="font-weight:bold;font-size:10px;font-family:Arial, sans-serif;fill:#000000"
             id="text70">Sergio Massa</text>
        </g>
      </g>
      <text
         x="4"
         y="4"
         style="font-family: Arial, sans-serif; font-size: 12px; fill: black; font-weight: bold; dominant-baseline: hanging;"
         id="text75" />
    </g>
  </g>
</svg>
